<?xml version="1.0" standalone="no"?>
<!DOCTYPE svg PUBLIC "-//W3C//DTD SVG 20010904//EN"
 "http://www.w3.org/TR/2001/REC-SVG-20010904/DTD/svg10.dtd">
<svg version="1.0" xmlns="http://www.w3.org/2000/svg"
 width="512.000000pt" height="512.000000pt" viewBox="0 0 512.000000 512.000000"
 preserveAspectRatio="xMidYMid meet">
<metadata>
Created by potrace 1.14, written by Peter Selinger 2001-2017
</metadata>
<g transform="translate(0.000000,512.000000) scale(0.100000,-0.100000)"
fill="#000000" stroke="none">
<path d="M0 2560 l0 -2560 2560 0 2560 0 0 2560 0 2560 -2560 0 -2560 0 0
-2560z m2074 1337 l49 -98 36 6 c212 33 562 33 797 -1 l41 -6 43 91 c24 50 49
96 56 102 26 21 391 -68 594 -146 197 -75 199 -76 262 -173 277 -425 434 -843
505 -1342 22 -156 26 -680 5 -717 -29 -52 -381 -260 -602 -356 -128 -56 -368
-143 -374 -136 -56 72 -196 301 -196 322 0 7 42 30 93 51 50 21 120 54 155 74
l63 34 -22 24 c-36 38 -53 38 -159 -5 -283 -117 -650 -182 -942 -167 -297 14
-525 66 -849 191 -45 18 -46 18 -77 -5 -18 -13 -31 -29 -29 -35 5 -14 83 -56
197 -106 52 -23 99 -45 104 -49 10 -10 -70 -152 -144 -258 -47 -67 -54 -73
-78 -67 -82 20 -320 118 -477 195 -187 92 -445 253 -465 289 -18 34 -25 413
-11 576 48 541 212 1012 521 1494 58 90 47 83 239 157 186 71 538 166 596 161
14 -2 33 -29 69 -100z"/>
<path d="M1864 2790 c-105 -22 -203 -102 -252 -208 -24 -51 -27 -69 -27 -167
0 -101 2 -115 29 -170 111 -226 383 -275 546 -99 114 122 138 291 66 449 -63
138 -223 224 -362 195z"/>
<path d="M3121 2784 c-30 -8 -69 -23 -86 -34 -48 -30 -124 -115 -145 -163 -83
-190 -12 -416 162 -513 48 -26 62 -29 148 -29 86 0 100 3 148 29 67 38 126
102 160 174 24 51 27 68 27 172 0 110 -1 118 -32 176 -78 150 -238 228 -382
188z"/>
</g>
</svg>
